<svg xmlns="http://www.w3.org/2000/svg" viewBox="0 0 204.43 46.93"><defs><style>.cls-1{fill:#fff;}.cls-2{fill:#3f9e81;}</style></defs><title>logo-light</title><g id="Layer_2" data-name="Layer 2"><g id="Layer_1-2" data-name="Layer 1"><path class="cls-1" d="M3.86,3.67v9.42H17.42v3.33H3.86V27.35H0V.31H19.08V3.67Z"/><path class="cls-1" d="M56.71,13.83C56.71,5.83,62.81,0,71,0A13.39,13.39,0,0,1,81.32,4.21L78.8,6.64a10,10,0,0,0-7.6-3.2c-6.11,0-10.63,4.4-10.63,10.39S65.09,24.22,71.2,24.22A10,10,0,0,0,78.8,21l2.52,2.44A13.45,13.45,0,0,1,71,27.66C62.81,27.66,56.71,21.82,56.71,13.83Z"/><path class="cls-2" d="M88.12,24.26l1.43-3a13.91,13.91,0,0,0,8.92,3.12c4.67,0,6.68-1.81,6.68-4.17,0-6.6-16.38-2.43-16.38-12.47C88.77,3.55,92,0,99.13,0a15.88,15.88,0,0,1,8.69,2.4l-1.28,3.09a13.92,13.92,0,0,0-7.41-2.21c-4.6,0-6.57,1.94-6.57,4.29,0,6.61,16.38,2.47,16.38,12.4,0,4.13-3.33,7.69-10.47,7.69C94.34,27.66,90.28,26.27,88.12,24.26Z"/><path class="cls-2" d="M118.21,15.68V.31h3.86V15.53c0,6,2.75,8.69,7.61,8.69s7.65-2.7,7.65-8.69V.31h3.75V15.68c0,7.84-4.29,12-11.44,12S118.21,23.52,118.21,15.68Z"/><path class="cls-2" d="M170.94,27.35,165.11,19c-.55,0-1.12.08-1.7.08h-6.69v8.23h-3.86V.31h10.55c7,0,11.27,3.55,11.27,9.42a8.53,8.53,0,0,1-5.94,8.54l6.41,9.08Zm-.12-17.62c0-3.86-2.59-6.06-7.53-6.06h-6.57V15.84h6.57C168.23,15.84,170.82,13.6,170.82,9.73Z"/><path class="cls-2" d="M204.43,24v3.36H184.81V.31h19.62V3.67H188.67V12h15.76v3.29H188.67V24Z"/><path class="cls-1" d="M44.39,20.59l3,6.76h4.06L39.13.31H35.31l-12.25,27h4q1.49-3.39,3-6.76l1.35-3.09q2.91-6.63,5.83-13.25L43,17.5"/><path class="cls-1" d="M95.35,44.53H90.47l-1,2.3H88.1l4.16-9.19h1.3l4.18,9.19H96.36Zm-.46-1.05-2-4.5-2,4.5Z"/><path class="cls-1" d="M99.54,42.23a4.64,4.64,0,0,1,4.87-4.69A4.52,4.52,0,0,1,107.9,39l-.85.82a3.41,3.41,0,0,0-2.59-1.09,3.53,3.53,0,1,0,0,7.06,3.42,3.42,0,0,0,2.59-1.1l.85.83a4.56,4.56,0,0,1-3.5,1.44A4.64,4.64,0,0,1,99.54,42.23Z"/><path class="cls-1" d="M110.22,42.23a4.64,4.64,0,0,1,4.87-4.69A4.53,4.53,0,0,1,118.58,39l-.86.82a3.37,3.37,0,0,0-2.58-1.09,3.53,3.53,0,1,0,0,7.06,3.38,3.38,0,0,0,2.58-1.1l.86.83a4.59,4.59,0,0,1-3.51,1.44A4.64,4.64,0,0,1,110.22,42.23Z"/><path class="cls-1" d="M120.89,42.23a4.89,4.89,0,1,1,4.9,4.7A4.67,4.67,0,0,1,120.89,42.23Zm8.46,0a3.57,3.57,0,1,0-3.56,3.53A3.46,3.46,0,0,0,129.35,42.23Z"/><path class="cls-1" d="M133.77,42.86V37.64h1.32v5.17c0,2,.93,2.95,2.58,2.95s2.6-.91,2.6-2.95V37.64h1.27v5.22c0,2.67-1.45,4.07-3.88,4.07S133.77,45.53,133.77,42.86Z"/><path class="cls-1" d="M153.32,37.64v9.19h-1.07L146.73,40v6.85h-1.31V37.64h1.08L152,44.49V37.64Z"/><path class="cls-1" d="M159.09,38.78h-3.15V37.64h7.6v1.14h-3.15v8h-1.3Z"/><path class="cls-1" d="M172,44.53h-4.88l-1,2.3h-1.35l4.16-9.19h1.3l4.17,9.19H173Zm-.46-1.05-2-4.5-2,4.5Z"/><path class="cls-1" d="M184.85,37.64v9.19h-1.07L178.27,40v6.85H177V37.64H178l5.51,6.85V37.64Z"/><path class="cls-1" d="M190.62,38.78h-3.15V37.64h7.6v1.14h-3.15v8h-1.3Z"/><path class="cls-1" d="M196.85,45.78l.49-1a4.71,4.71,0,0,0,3,1.07c1.59,0,2.27-.62,2.27-1.42,0-2.24-5.57-.83-5.57-4.24,0-1.42,1.11-2.62,3.52-2.62a5.34,5.34,0,0,1,2.95.81l-.43,1a4.77,4.77,0,0,0-2.52-.75c-1.56,0-2.23.66-2.23,1.46,0,2.24,5.56.84,5.56,4.21,0,1.4-1.12,2.61-3.55,2.61A5.47,5.47,0,0,1,196.85,45.78Z"/></g></g></svg>