<svg xmlns="http://www.w3.org/2000/svg" viewBox="0 0 243.47 243.47"><defs><style>.cls-1{fill:#fff;}.cls-2{fill:#414042;}.cls-3{fill:#3f9e81;}</style></defs><title>facsure-logo</title><g id="Layer_2" data-name="Layer 2"><g id="Layer_1-2" data-name="Layer 1"><rect class="cls-1" width="243.47" height="243.47"/><path class="cls-2" d="M23.38,101.94v9.42H36.94v3.33H23.38v10.93H19.52v-27H38.6v3.36Z"/><path class="cls-2" d="M76.23,112.1c0-8,6.1-13.83,14.33-13.83a13.39,13.39,0,0,1,10.28,4.21l-2.52,2.43a10,10,0,0,0-7.61-3.2,10.39,10.39,0,1,0,0,20.78,10,10,0,0,0,7.61-3.25l2.52,2.44a13.45,13.45,0,0,1-10.32,4.25C82.33,125.93,76.23,120.09,76.23,112.1Z"/><path class="cls-3" d="M107.64,122.53l1.43-3a13.86,13.86,0,0,0,8.92,3.13c4.67,0,6.68-1.81,6.68-4.17,0-6.6-16.38-2.43-16.38-12.47,0-4.18,3.25-7.73,10.35-7.73a16,16,0,0,1,8.7,2.39l-1.28,3.09a14,14,0,0,0-7.42-2.2c-4.59,0-6.56,1.93-6.56,4.29,0,6.61,16.38,2.47,16.38,12.4,0,4.13-3.33,7.69-10.47,7.69C113.86,125.93,109.8,124.54,107.64,122.53Z"/><path class="cls-3" d="M137.73,114V98.58h3.86V113.8c0,6,2.75,8.69,7.61,8.69s7.65-2.71,7.65-8.69V98.58h3.75V114c0,7.84-4.29,12-11.44,12S137.73,121.79,137.73,114Z"/><path class="cls-3" d="M190.46,125.62l-5.83-8.31c-.55,0-1.12.08-1.7.08h-6.69v8.23h-3.86v-27h10.55c7,0,11.27,3.55,11.27,9.42a8.53,8.53,0,0,1-5.94,8.54l6.41,9.08ZM190.34,108c0-3.86-2.59-6.06-7.53-6.06h-6.57v12.17h6.57C187.75,114.11,190.34,111.87,190.34,108Z"/><path class="cls-3" d="M224,122.26v3.36H204.33v-27H224v3.36H208.19v8.3H224v3.29H208.19v8.73Z"/><path class="cls-2" d="M63.9,118.86l3,6.76h4.05l-12.28-27H54.83l-12.25,27h4q1.48-3.39,3-6.76l1.35-3.09q2.91-6.63,5.83-13.25l5.83,13.25"/><path class="cls-2" d="M114.87,142.8H110l-1,2.3h-1.36l4.16-9.19h1.3l4.18,9.19h-1.38Zm-.46-1.05-2-4.5-2,4.5Z"/><path class="cls-2" d="M119.06,140.5a4.64,4.64,0,0,1,4.87-4.69,4.52,4.52,0,0,1,3.49,1.43l-.85.82A3.41,3.41,0,0,0,124,137a3.53,3.53,0,1,0,0,7.06,3.42,3.42,0,0,0,2.59-1.1l.85.83a4.56,4.56,0,0,1-3.5,1.44A4.64,4.64,0,0,1,119.06,140.5Z"/><path class="cls-2" d="M129.74,140.5a4.64,4.64,0,0,1,4.87-4.69,4.53,4.53,0,0,1,3.49,1.43l-.86.82a3.37,3.37,0,0,0-2.58-1.09,3.53,3.53,0,1,0,0,7.06,3.38,3.38,0,0,0,2.58-1.1l.86.83a4.59,4.59,0,0,1-3.51,1.44A4.64,4.64,0,0,1,129.74,140.5Z"/><path class="cls-2" d="M140.41,140.5a4.89,4.89,0,1,1,4.9,4.7A4.67,4.67,0,0,1,140.41,140.5Zm8.46,0a3.57,3.57,0,1,0-3.56,3.53A3.46,3.46,0,0,0,148.87,140.5Z"/><path class="cls-2" d="M153.29,141.13v-5.22h1.32v5.17c0,2,.93,2.95,2.58,2.95s2.6-.92,2.6-2.95v-5.17h1.27v5.22c0,2.67-1.45,4.07-3.88,4.07S153.29,143.8,153.29,141.13Z"/><path class="cls-2" d="M172.84,135.91v9.19h-1.07l-5.52-6.85v6.85h-1.31v-9.19H166l5.51,6.85v-6.85Z"/><path class="cls-2" d="M178.61,137.05h-3.15v-1.14h7.6v1.14h-3.15v8h-1.3Z"/><path class="cls-2" d="M191.53,142.8h-4.88l-1,2.3h-1.35l4.16-9.19h1.3l4.17,9.19h-1.38Zm-.46-1.05-2-4.5-2,4.5Z"/><path class="cls-2" d="M204.37,135.91v9.19H203.3l-5.51-6.85v6.85h-1.32v-9.19h1.08l5.51,6.85v-6.85Z"/><path class="cls-2" d="M210.14,137.05H207v-1.14h7.6v1.14h-3.15v8h-1.3Z"/><path class="cls-2" d="M216.37,144.05l.49-1a4.71,4.71,0,0,0,3,1.07c1.59,0,2.27-.62,2.27-1.42,0-2.25-5.57-.83-5.57-4.24,0-1.42,1.11-2.62,3.52-2.62a5.34,5.34,0,0,1,2.95.81l-.43,1a4.77,4.77,0,0,0-2.52-.75c-1.56,0-2.23.66-2.23,1.46,0,2.24,5.56.84,5.56,4.21,0,1.4-1.13,2.61-3.55,2.61A5.45,5.45,0,0,1,216.37,144.05Z"/></g></g></svg>